# xmcd
#
# Track frame offsets: 
#        150
#        18948
#        38347
#        57935
#        82608
#        103763
#        119496
#        140627
#        160090
#        181200
#        201750
#        222615
#
# Disc length: 3234 seconds
#
# Revision: 1
# Processed by: cddbd v1.5.2PL0 Copyright (c) Steve Scherf et al.
# Submitted via: ExactAudioCopy v0.99pb1
#
DISCID=9c0ca00c
DTITLE=Cooly's Hot-Box - Don't Be Afraid-Get On
DYEAR=2004
DGENRE=R&B
TTITLE0=Don't Be Afraid
TTITLE1=Motions
TTITLE2=Get On
TTITLE3=Touch My Body
TTITLE4=Are We Lovers Anymore
TTITLE5=Maybe I
TTITLE6=Time 2B In Love
TTITLE7=After Life
TTITLE8=Give Me Your Money
TTITLE9=Wait 4 U
TTITLE10=Lose Your Friends
TTITLE11=Waiting In Vain
EXTD=
EXTT0=
EXTT1=
EXTT2=
EXTT3=
EXTT4=
EXTT5=
EXTT6=
EXTT7=
EXTT8=
EXTT9=
EXTT10=
EXTT11=
PLAYORDER=
